<svg xmlns="http://www.w3.org/2000/svg" xmlns:xlink="http://www.w3.org/1999/xlink" width="180" height="180" viewBox="0 0 180 180" fill="none">
<ellipse cx="90" cy="155" rx="86" ry="5"   fill="#9B9CB8" >
</ellipse>
<g mask="url(#mask-3_2410)">
<path d="M83.78 155L80.2316 138.44L73.97 138.44L77.5183 155L83.78 155Z"   fill="#D3D9EB" >
</path>
</g>
<g mask="url(#mask-3_2413)">
<path d="M27.3881 155L30.87 138.44L24.6125 138.44L21.13 155L27.3881 155Z"   fill="#BCBDD1" >
</path>
</g>
<path d="M39.0097 70.9199L25.58 134.1L31.8396 134.1L45.27 70.9199L39.0097 70.9199Z"   fill="#BCBDD1" >
</path>
<path d="M49.1973 24L48.9732 24L40.17 65.43L46.4283 65.43L52.24 38.0779L49.1973 24Z"   fill="#BCBDD1" >
</path>
<path d="M59.34 70.9199L73.0005 134.1L79.26 134.1L65.6 70.9199L59.34 70.9199Z"   fill="#D3D9EB" >
</path>
<path d="M55.2329 24L49.2 24L52.2423 38.0779L58.1531 65.43L64.41 65.43L55.4574 24L55.2329 24Z"   fill="#D3D9EB" >
</path>
<path d="M65.6 70.9199L64.4123 65.4299L58.15 65.4299L59.3376 70.9199L65.6 70.9199Z"   fill="#BCBDD1" >
</path>
<path d="M40.1675 65.4299L39 70.9199L45.2625 70.9199L46.43 65.4299L40.1675 65.4299Z"   fill="#9B9CB8" >
</path>
<path d="M73.9678 138.44L80.23 138.44L79.0428 132.95L72.78 132.95L73.9678 138.44Z"   fill="#BCBDD1" >
</path>
<path d="M24.62 138.44L30.8825 138.44L32.05 132.95L25.7875 132.95L24.62 138.44Z"   fill="#9B9CB8" >
</path>
<path d="M102.349 154.99L105.84 138.44L99.5805 138.44L96.09 154.99L102.349 154.99Z"   fill="#BCBDD1" >
</path>
<path d="M106.79 134.1L120.22 70.9199L113.96 70.9199L100.53 134.1L106.79 134.1Z"   fill="#BCBDD1" >
</path>
<path d="M123.923 24L115.12 65.43L121.378 65.43L127.19 38.0779L124.147 24L123.923 24Z"   fill="#BCBDD1" >
</path>
<path d="M134.29 70.9199L147.951 134.1L154.21 134.1L140.55 70.9199L134.29 70.9199Z"   fill="#D3D9EB" >
</path>
<path d="M148.81 138.44L152.463 154.99L158.72 154.99L155.067 138.44L148.81 138.44Z"   fill="#D3D9EB" >
</path>
<path d="M130.183 24L124.15 24L127.192 38.0779L133.103 65.43L139.36 65.43L130.407 24L130.183 24Z"   fill="#D3D9EB" >
</path>
<path d="M140.56 70.9199L139.372 65.4299L133.11 65.4299L134.298 70.9199L140.56 70.9199Z"   fill="#BCBDD1" >
</path>
<path d="M115.117 65.4299L113.95 70.9199L120.212 70.9199L121.38 65.4299L115.117 65.4299Z"   fill="#9B9CB8" >
</path>
<path d="M148.818 138.44L155.08 138.44L153.892 132.95L147.63 132.95L148.818 138.44Z"   fill="#BCBDD1" >
</path>
<path d="M99.58 138.44L105.842 138.44L107.01 132.95L100.747 132.95L99.58 138.44Z"   fill="#9B9CB8" >
</path>
<path d="M19.43 65.43L43.96 65.43L36.0032 37.62L27.3868 37.62L19.43 65.43Z"   fill="#9B9CB8" >
</path>
<path d="M142.012 37.62L131.48 37.62L136.746 56.0252L139.436 65.43L151.62 65.43L143.663 37.62L142.012 37.62Z"   fill="#EDEFF5" >
</path>
<path d="M115.617 65.43L127.8 65.43L119.844 37.62L107.66 37.62L115.617 65.43Z"   fill="#EDEFF5" >
</path>
<path d="M43.9554 65.43L56.34 65.43L48.3842 37.62L36 37.62L43.9554 65.43Z"   fill="#EDEFF5" >
</path>
<path d="M91.7965 65.43L103.98 65.43L96.0235 37.62L83.84 37.62L91.7965 65.43Z"   fill="#EDEFF5" >
</path>
<path d="M67.9765 65.43L80.16 65.43L72.2035 37.62L60.02 37.62L67.9765 65.43Z"   fill="#EDEFF5" >
</path>
<path d="M56.3463 65.43L67.98 65.43L60.0237 37.62L48.39 37.62L56.3463 65.43Z"   fill="#BCBDD1" >
</path>
<path d="M80.166 65.43L91.8 65.43L83.8439 37.62L72.21 37.62L80.166 65.43Z"   fill="#BCBDD1" >
</path>
<path d="M103.986 65.43L115.62 65.43L107.664 37.62L96.03 37.62L103.986 65.43Z"   fill="#BCBDD1" >
</path>
<path d="M131.484 37.62L119.85 37.62L127.806 65.43L134.059 65.43L139.44 65.43L136.749 56.0255L131.484 37.62Z"   fill="#BCBDD1" >
</path>
<path d="M151.626 65.43L158.59 65.43L150.634 37.62L143.67 37.62L151.626 65.43Z"   fill="#BCBDD1" >
</path>
<path d="M128.7 105.15L14.0673 105.15L6.10999 132.96L120.743 132.96L128.7 105.15Z"   fill="#9B9CB8" >
</path>
<path d="M164.922 105.15L22.68 105.15L30.6376 132.96L172.88 132.96L164.922 105.15Z"   fill="#EDEFF5" >
</path>
<path d="M45.8239 105.15L34.19 105.15L42.1467 132.96L53.78 132.96L45.8239 105.15Z"   fill="#BCBDD1" >
</path>
<path d="M69.6439 105.15L58.01 105.15L65.9661 132.96L77.6 132.96L69.6439 105.15Z"   fill="#BCBDD1" >
</path>
<path d="M93.4639 105.15L81.83 105.15L89.7866 132.96L101.42 132.96L93.4639 105.15Z"   fill="#BCBDD1" >
</path>
<path d="M117.284 105.15L105.65 105.15L113.607 132.96L125.24 132.96L117.284 105.15Z"   fill="#BCBDD1" >
</path>
<path d="M141.104 105.15L129.47 105.15L137.427 132.96L149.06 132.96L141.104 105.15Z"   fill="#BCBDD1" >
</path>
<path d="M164.924 105.15L153.29 105.15L161.246 132.96L172.88 132.96L164.924 105.15Z"   fill="#BCBDD1" >
</path>
<defs>
<mask id="mask-3_2410" style="mask-type:alpha" maskUnits="userSpaceOnUse">
<path d="M73.97 154.99L83.78 154.99L83.78 138.44L73.97 138.44L73.97 154.99Z"   fill="#000000" >
</path>
</mask>
<mask id="mask-3_2413" style="mask-type:alpha" maskUnits="userSpaceOnUse">
<path d="M21.13 154.99L30.87 154.99L30.87 138.44L21.13 138.44L21.13 154.99Z"   fill="#000000" >
</path>
</mask>
</defs>
</svg>
